<svg xmlns="http://www.w3.org/2000/svg" width="90" height="90"><path d="M15.938 0h58.125A16.132 16.132 0 0190 16.346v57.308A16.132 16.132 0 0174.063 90H15.938A16.132 16.132 0 010 73.654V16.346A16.132 16.132 0 0115.938 0z" fill="#300"/><path d="M43.613 54.001h-13.95l-2.85 9.038a.659.659 0 01-.713.538h-7.05c-.412 0-.525-.231-.412-.692l12.075-35.654c.113-.385.225-.808.375-1.269a13.769 13.769 0 00.225-2.5.38.38 0 01.3-.423h9.713c.3 0 .45.115.487.308L55.5 62.962c.113.423 0 .615-.375.615h-7.837a.567.567 0 01-.6-.423zm-11.775-7.808h9.525a56.05 56.05 0 00-.862-2.769 117.401 117.401 0 01-1.013-3.308c-.375-1.192-.712-2.346-1.088-3.538s-.712-2.308-1.012-3.423c-.3-1.077-.562-2.077-.825-3h-.075a48.2 48.2 0 01-1.275 4.962c-.562 1.846-1.125 3.769-1.725 5.692a77.21 77.21 0 01-1.65 5.385zm31.837-16.577a4.579 4.579 0 01-3.338-1.346 5.072 5.072 0 01-1.275-3.538 4.585 4.585 0 011.35-3.423 4.738 4.738 0 013.338-1.346 4.431 4.431 0 013.412 1.346 5.39 5.39 0 01-.075 6.962 4.35 4.35 0 01-3.412 1.345zm-4.2 33.385V33.385c0-.385.15-.538.487-.538h7.425c.338 0 .488.192.488.538V63c0 .423-.15.615-.488.615h-7.35c-.371.001-.562-.23-.562-.615z" fill="#ff9a00"/></svg>