<svg xmlns="http://www.w3.org/2000/svg" width="80" height="80"><path d="M23.854 15h32.292A8.962 8.962 0 0165 24.081v31.838A8.962 8.962 0 0156.146 65H23.854A8.962 8.962 0 0115 55.919V24.081A8.962 8.962 0 0123.854 15z" fill="#300"/><path d="M39.229 44.999h-7.75l-1.583 5.021a.366.366 0 01-.4.3h-3.913c-.229 0-.292-.128-.229-.385l6.708-19.808c.063-.214.125-.449.208-.705a7.649 7.649 0 00.125-1.389.211.211 0 01.167-.235h5.4c.167 0 .25.064.271.171l7.6 22.009c.063.235 0 .342-.208.342h-4.354a.315.315 0 01-.333-.235zm-6.542-4.338h5.292a31.162 31.162 0 00-.479-1.538c-.187-.577-.375-1.2-.563-1.838-.208-.662-.4-1.3-.6-1.966s-.4-1.282-.562-1.9c-.167-.6-.312-1.154-.458-1.667h-.046a26.776 26.776 0 01-.708 2.756c-.312 1.026-.625 2.094-.958 3.162a40.48 40.48 0 01-.917 2.991zm17.688-9.208a2.544 2.544 0 01-1.854-.748 2.818 2.818 0 01-.708-1.966 2.547 2.547 0 01.75-1.9 2.632 2.632 0 011.854-.749 2.462 2.462 0 011.9.748 2.994 2.994 0 01-.042 3.868 2.417 2.417 0 01-1.9.747zM48.042 50V33.547c0-.214.083-.3.271-.3h4.125c.188 0 .271.107.271.3V50c0 .235-.083.342-.271.342h-4.083c-.209 0-.313-.128-.313-.342z" fill="#ff9a00"/></svg>