<svg xmlns="http://www.w3.org/2000/svg" width="60" height="60"><g fill="#fff"><path d="M20.507 30.508c-.2-.667-.4-1.5-.56-2.167h-.033c-.165.667-.33 1.517-.511 2.167l-.659 2.384h2.453zm9.618-2.233a4.227 4.227 0 00-1.038.1v3.317a3.808 3.808 0 00.84.067c1.334 0 2.157-.683 2.157-1.834 0-1.034-.709-1.65-1.959-1.65z"/><path d="M45.785 24.308h-.949v-4.635a.688.688 0 00-.008-.088.775.775 0 00-.184-.508l-7.62-8.809-.006-.005a.76.76 0 00-.154-.131c-.017-.012-.034-.021-.051-.032a.805.805 0 00-.153-.065l-.042-.013A.776.776 0 0036.44 10H17.714a1.561 1.561 0 00-1.55 1.569v12.738h-.949a2.229 2.229 0 00-2.219 2.242v11.659a2.229 2.229 0 002.215 2.242h.949v7.981A1.561 1.561 0 0017.714 50h25.572a1.561 1.561 0 001.55-1.569V40.45h.949a2.229 2.229 0 002.211-2.241V26.55a2.229 2.229 0 00-2.211-2.242zM17.714 11.569h17.952v8.025a.78.78 0 00.775.784h6.845v3.929H17.714zm16.857 18.289a3.617 3.617 0 01-1.02 2.667 5.11 5.11 0 01-3.607 1.184 6.318 6.318 0 01-.856-.05v4.017h-2.487V26.591a20.37 20.37 0 013.392-.233 5.282 5.282 0 013.393.9 3.3 3.3 0 011.185 2.6zm-16.975 7.817h-2.6l3.392-11.234h3.288l3.442 11.234h-2.7l-.856-2.883h-3.179zm25.69 10.331H17.714V40.45h25.572zm-.957-10.332l-2.718-4.85-.955 1.183v3.667H36.17V26.441h2.486v4.967h.049c.247-.433.51-.833.758-1.233l2.52-3.734h3.079l-3.673 4.784 3.87 6.45h-2.93z"/></g></svg>