<svg xmlns="http://www.w3.org/2000/svg" width="288.333" height="203.283"><g transform="translate(-231 -282.358)"><g transform="translate(231 282.358)"><path d="M7.483 0h273.352a7.7 7.7 0 015.3 2.073 6.915 6.915 0 012.2 5.023v11.432H0V7.1A7.3 7.3 0 017.483 0zM0 18.528h288.333v177.659a7.3 7.3 0 01-7.483 7.1H7.483a7.3 7.3 0 01-7.483-7.1z" fill="#7d8488"/><path d="M1.891 18.528h284.457v177.424a5.84 5.84 0 01-5.988 5.679H7.869a5.839 5.839 0 01-5.978-5.679z" fill="#009fe3"/><ellipse cx="3.607" cy="3.42" rx="3.607" ry="3.42" transform="translate(9.02 5.834)" fill="#fbb03b"/><ellipse cx="3.607" cy="3.42" rx="3.607" ry="3.42" transform="translate(19.317 5.834)" fill="#6fb353"/><ellipse cx="3.607" cy="3.42" rx="3.607" ry="3.42" transform="translate(30.317 5.834)" fill="#c1272d"/></g><rect width="17.943" height="70.851" rx="8.972" transform="translate(388.057 333.149)" fill="#fff" stroke="#fff" stroke-miterlimit="10" stroke-width=".5"/><rect width="17.943" height="49.381" rx="8.972" transform="translate(365.235 343.884)" fill="#fff" stroke="#fff" stroke-miterlimit="10" stroke-width=".5"/><rect width="17.943" height="32.205" rx="8.972" transform="translate(342.413 353.086)" fill="#fff" stroke="#fff" stroke-miterlimit="10" stroke-width=".5"/><text transform="translate(322.333 430)" fill="#fff" font-size="20" font-family="ArialRoundedMTBold, Arial Rounded MT"><tspan x="0" y="0">Apprender</tspan></text></g></svg>