<svg xmlns="http://www.w3.org/2000/svg" width="60" height="60"><path d="M43.895 26.681c-4.672 0-5.323 4.664-5.323 4.664h9.936s.059-4.664-4.613-4.664zm-22.542 4.658h-8.805v8.084h8.4c1.263-.035 3.6-.431 3.6-3.927-.006-4.193-3.195-4.157-3.195-4.157zm2.137-8.262c0-3.147-2.14-3.147-2.14-3.147h-8.8v6.749h8.259c1.425.001 2.681-.455 2.681-3.602z" fill="#fff"/><path d="M56.809 0H3.191A3.191 3.191 0 000 3.191v53.618A3.191 3.191 0 003.191 60h53.618A3.191 3.191 0 0060 56.809V3.191A3.191 3.191 0 0056.809 0zM37.27 16.337h12.479v3.725H37.27zm-6.309 19.539c0 9.232-9.608 8.927-9.608 8.927H5.613V14.555h15.74c4.783 0 8.559 2.641 8.559 8.053S25.3 28.365 25.3 28.365c6.081 0 5.661 7.511 5.661 7.511zm23.345-.495H38.63c0 5.62 5.323 5.265 5.323 5.265 5.028 0 4.851-3.254 4.851-3.254h5.323c0 8.636-10.351 8.045-10.351 8.045-12.421 0-11.623-11.564-11.623-11.564s-.01-11.621 11.623-11.621c12.245-.002 10.53 13.129 10.53 13.129z" fill="#fff"/></svg>