<svg xmlns="http://www.w3.org/2000/svg" width="40" height="40"><path d="M29.264 17.788a3.607 3.607 0 00-3.549 3.109h6.624a3 3 0 00-3.075-3.109zm-15.029 3.103h-5.87v5.389h5.6c.842-.023 2.4-.288 2.4-2.618-.004-2.793-2.13-2.771-2.13-2.771zm1.426-5.506c0-2.1-1.426-2.1-1.426-2.1h-5.87v4.5h5.506c.951.002 1.79-.302 1.79-2.4z" fill="#586165"/><path d="M37.872 0H2.128A2.128 2.128 0 000 2.128v35.744A2.128 2.128 0 002.128 40h35.744A2.127 2.127 0 0040 37.872V2.128A2.127 2.127 0 0037.872 0zM24.846 10.891h8.32v2.483h-8.32zM20.64 23.917c0 6.154-6.406 5.951-6.406 5.951H3.742V9.7h10.493c3.189 0 5.706 1.76 5.706 5.369a3.5 3.5 0 01-3.077 3.837c4.057.004 3.776 5.011 3.776 5.011zm15.563-.33H25.754A3.281 3.281 0 0029.3 27.1c3.352 0 3.234-2.169 3.234-2.169h3.549c0 5.757-6.9 5.363-6.9 5.363-8.281 0-7.749-7.709-7.749-7.709s-.007-7.748 7.749-7.748c8.164-.003 7.017 8.75 7.017 8.75z" fill="#586165"/></svg>