<svg xmlns="http://www.w3.org/2000/svg" width="35" height="40"><defs><linearGradient id="b" x1=".342" y1=".303" x2=".826" y2=".908" gradientUnits="objectBoundingBox"><stop offset="0" stop-color="#3b009b"/><stop offset="1" stop-color="#390086"/></linearGradient><linearGradient id="c" x1=".279" y1=".356" x2=".544" y2=".89" gradientUnits="objectBoundingBox"><stop offset="0" stop-color="#340084"/><stop offset="1" stop-color="#290064"/></linearGradient><linearGradient id="d" x1=".29" y1=".168" x2=".561" y2=".597" gradientUnits="objectBoundingBox"><stop offset="0" stop-color="#a47ede"/><stop offset="1" stop-color="#9866d3"/></linearGradient><clipPath id="a"><path d="M33.484 8.85L19.016.366a3.316 3.316 0 00-3.031 0L1.516 8.85A3.425 3.425 0 000 11.516v16.967a3.379 3.379 0 001.516 2.666l14.469 8.484a3.316 3.316 0 003.031 0l14.469-8.484A3.316 3.316 0 0035 28.483V11.516a3.5 3.5 0 00-1.516-2.666z" transform="translate(0 .001)"/></clipPath></defs><g clip-path="url(#a)"><path transform="translate(17.123 9.726)" fill="url(#b)" d="M0 0h20.575v21.367H0z"/><path d="M10.088 224.19l-26.479-15.56h-13.52v25.76h40z" transform="translate(27.61 -192.331)" fill="url(#c)"/><path d="M-29.911 18.269l40-23.507v-9.275h-40z" transform="translate(27.61 13.379)" fill="url(#d)"/></g><path d="M5.833 20a11.653 11.653 0 0121.77-5.928l-5.049 2.967C19.506 11.919 11.938 13.75 11.666 20a5.82 5.82 0 0010.888 2.96l5.049 2.967C21.806 36.152 6.126 32.473 5.833 20z" fill="#fff"/><g fill="#fff"><path d="M25.079 16.641h.962l-.657 6.445h-.98zm2.059 0h.962l-.657 6.445h-.98z"/><path d="M24.001 18.172h4.808v.943h-4.808zm-.269 2.297h4.808v.943h-4.808z"/></g></svg>