<svg xmlns="http://www.w3.org/2000/svg" width="162" height="296.933"><g transform="translate(-231 -235.533)"><rect width="160.009" height="296.933" rx="16" transform="translate(231 235.533)" fill="#515b60"/><rect width="149.371" height="280.12" rx="12" transform="translate(236.333 244.321)" fill="#fff"/><rect width="40.891" height="12.549" rx="6" transform="translate(291.003 238.546)" fill="#515b60"/><rect width="6.214" height="27.587" rx="2.69" transform="translate(386.786 290.215)" fill="#515b60"/><rect width="6.214" height="27.587" rx="2.69" transform="translate(386.786 320.139)" fill="#515b60"/><g transform="translate(274 336)"><ellipse cx="16.122" cy="16.835" rx="16.122" ry="16.835" transform="translate(19.513 25.252)" fill="#263f44"/><ellipse cx="8.698" cy="9.082" rx="8.698" ry="9.082" transform="translate(52.605 51.835)" fill="#263f44"/><path d="M60.629 32.401a3.824 3.824 0 01-5.211 1.435l-.184-.109a4.2 4.2 0 01-1.225-5.648 3.824 3.824 0 015.211-1.435l.184.109a4.2 4.2 0 011.225 5.648z" fill="#263f44"/><ellipse cx="5.941" cy="6.204" rx="5.941" ry="6.204" transform="translate(0 42.971)" fill="#263f44"/><path fill="#263f44" d="M34.366 7.529h2.122v27.912h-2.122zm8.308 41.178l1.251-1.789 21.582 16.46-1.251 1.807zm-13.992-6.208l.481 2.157-26.031 6.326-.481-2.157zm4.248-1.037l-.774-2.061 24.881-10.2.774 2.061z"/><ellipse cx="13.151" cy="13.733" rx="13.151" ry="13.733" transform="translate(22.483 28.354)" fill="#fff"/><ellipse cx="9.756" cy="10.189" rx="9.756" ry="10.189" transform="translate(25.878 31.898)" fill="#263f44"/><path d="M35.634 35a7.094 7.094 0 11-6.79 7.088A6.96 6.96 0 0135.634 35z" fill="#263f44"/><ellipse cx="7" cy="7.311" rx="7" ry="7.311" transform="translate(28.424)" fill="#263f44"/></g><text transform="translate(241 430)" fill="#263f44" font-size="18" font-family="OCRAExtended, OCR A"><tspan x="0" y="0">Covid monitor</tspan></text></g></svg>