<svg xmlns="http://www.w3.org/2000/svg" width="30" height="40"><path d="M30 7.861l-2.733 28.922L14.982 40 2.731 36.787.001 7.861z" fill="#264de4"/><path d="M24.927 34.941l2.336-24.715H15v27.315z" fill="#2965f1"/><path d="M6.259 20.954l.337 3.548h8.4v-3.548zM15 13.769H5.583l.341 3.548H15zm0 20.09v-3.691h-.016l-4.183-1.067-.267-2.829h-3.77l.526 5.57 7.693 2.017z" fill="#ebebeb"/><path d="M7.06 0h4.549v1.8H8.96v1.8h2.647v1.8H7.06zm5.459 0h4.549v1.563h-2.649v.313h2.647v3.593h-4.547V3.828h2.647v-.312h-2.647zm5.458 0h4.549v1.563h-2.649v.313h2.647v3.593h-4.547V3.828h2.647v-.312h-2.647zm1.635 24.502l-.436 4.6-4.189 1.068v3.691l7.7-2.016.056-.6.883-9.34.092-.953.678-7.181h-9.408v3.548h5.292l-.342 3.633h-4.95V24.5z" fill="#fff"/></svg>