<svg xmlns="http://www.w3.org/2000/svg" width="70" height="90"><path d="M70 17.687l-6.377 65.074L34.957 90l-28.59-7.233-6.37-65.084z" fill="#264de4"/><path d="M58.163 78.615l5.45-55.609H35v61.458z" fill="#2965f1"/><path d="M14.604 47.148l.785 7.982H35v-7.982zM35 30.986H13.026l.8 7.982h21.177zm0 45.202v-8.3l-.038.009-9.76-2.4-.624-6.366h-8.8l1.228 12.533 17.951 4.539z" fill="#ebebeb"/><path d="M16.474 0h10.614v4.043h-6.175v4.043h6.175v4.043H16.474zm12.737 0h10.614v3.516H33.65v.7h6.175V12.3H29.211V8.613h6.175v-.7h-6.175zm12.736 0h10.614v3.516h-6.175v.7h6.175V12.3H41.947V8.613h6.175v-.7h-6.175zm3.814 55.13l-1.017 10.356-9.774 2.4v8.3l17.965-4.535.132-1.349 2.06-21.016.214-2.143 1.586-16.157H34.97v7.982h12.348l-.8 8.174H34.97v7.982z" fill="#fff"/></svg>