<svg xmlns="http://www.w3.org/2000/svg" width="80" height="80"><path d="M65 18.757L60.445 69.37 39.967 75l-20.419-5.622-4.55-50.621z" fill="#264de4"/><path d="M56.545 66.147l3.893-43.251H40v47.8z" fill="#2965f1"/><path d="M25.431 41.67l.561 6.208H40V41.67zM40 29.099H24.3l.569 6.209h15.127zm0 35.151v-6.459l-.027.007-6.971-1.867-.446-4.952h-6.284l.877 9.748 12.822 3.53z" fill="#ebebeb"/><path d="M26.767 5h7.581v3.145h-4.411v3.144h4.411v3.145h-7.581zm9.098 0h7.581v2.734h-4.411v.547h4.411v6.289h-7.581V11.7h4.411v-.548h-4.411zm9.097 0h7.581v2.734h-4.411v.547h4.411v6.289h-7.581V11.7h4.411v-.548h-4.411zm2.724 42.878l-.727 8.052-6.981 1.869v6.459l12.832-3.527.094-1.049 1.471-16.345.153-1.667 1.13-12.566h-15.68v6.209h8.82l-.57 6.358h-8.251v6.208z" fill="#fff"/></svg>