<svg xmlns="http://www.w3.org/2000/svg" width="60" height="60"><path d="M28.671 23.11a133.743 133.743 0 00-7.624-11.875A20.906 20.906 0 009.622 25.62h.2a78.972 78.972 0 0018.849-2.51zm4.95 10.484C22.2 37.568 17.877 45.353 17.281 46.52a20.834 20.834 0 0020.772 2.718 87.068 87.068 0 00-4.409-15.652zm10.116-19.213a20.831 20.831 0 00-18.439-4.635 112.549 112.549 0 017.667 12.03c7.039-2.662 10.191-6.595 10.772-7.395zm-12.31 15.715c.229-.073.461-.142.694-.208a73.293 73.293 0 00-1.594-3.329 78.035 78.035 0 01-20.823 2.963h-.546c-.005.172-.01.343-.01.514a20.721 20.721 0 005.249 13.8c.881-1.463 6.611-10.373 17.03-13.74z" fill="#fff"/><path d="M56.809 0H3.191A3.191 3.191 0 000 3.191v53.618A3.191 3.191 0 003.191 60h53.618A3.191 3.191 0 0060 56.809V3.191A3.191 3.191 0 0056.809 0zM30 54.648A24.648 24.648 0 1154.68 30 24.691 24.691 0 0130 54.648z" fill="#fff"/><path d="M37.811 32.563a91.2 91.2 0 014 14.621 20.862 20.862 0 008.762-13.741 30.975 30.975 0 00-8.558-1.194 27.179 27.179 0 00-4.204.314zm-3.118-7.455a64.686 64.686 0 011.753 3.922 39.132 39.132 0 014.753-.276 51.759 51.759 0 019.646.932 20.705 20.705 0 00-4.607-12.7c-.728.944-4.25 5.116-11.545 8.122z" fill="#fff"/></svg>