<svg xmlns="http://www.w3.org/2000/svg" width="40" height="40"><path d="M19.114 15.407a89.162 89.162 0 00-5.085-7.916 13.937 13.937 0 00-7.614 9.591h.136a52.648 52.648 0 0012.563-1.675zm3.3 6.989c-7.614 2.649-10.5 7.84-10.893 8.618a13.889 13.889 0 0013.848 1.811 58.045 58.045 0 00-2.939-10.434zm6.744-12.808a13.887 13.887 0 00-12.293-3.09 75.033 75.033 0 015.114 8.019 15.879 15.879 0 007.179-4.929zm-8.206 10.476c.153-.049.308-.095.463-.139a45.869 45.869 0 00-1.063-2.219 52.023 52.023 0 01-13.885 1.975h-.364c0 .114-.006.229-.006.343a13.814 13.814 0 003.5 9.2c.589-.975 4.408-6.915 11.355-9.16z" fill="#586165"/><path d="M37.872 0H2.128A2.128 2.128 0 000 2.128v35.744A2.128 2.128 0 002.128 40h35.744A2.127 2.127 0 0040 37.872V2.128A2.127 2.127 0 0037.872 0zM20 36.432A16.432 16.432 0 1136.454 20 16.461 16.461 0 0120 36.432z" fill="#586165"/><path d="M25.208 21.709a60.8 60.8 0 012.662 9.748 13.908 13.908 0 005.84-9.16 20.65 20.65 0 00-5.706-.8 18.119 18.119 0 00-2.796.212zm-2.079-4.97c.311.641.612 1.292.891 1.948.1.222.187.443.277.663a26.089 26.089 0 013.169-.184 34.506 34.506 0 016.431.621 13.8 13.8 0 00-3.071-8.463 18.927 18.927 0 01-7.697 5.415z" fill="#586165"/></svg>