<svg xmlns="http://www.w3.org/2000/svg" width="60" height="60"><defs><linearGradient id="a" x1="-.035" y1=".17" x2="1.008" y2=".929" gradientUnits="objectBoundingBox"><stop offset="0" stop-color="#fff" stop-opacity=".102"/><stop offset=".14" stop-color="#fff" stop-opacity=".078"/><stop offset=".61" stop-color="#fff" stop-opacity=".02"/><stop offset="1" stop-color="#fff" stop-opacity="0"/></linearGradient></defs><path d="M15.016 42.273l5.074-31.5a.923.923 0 01.769-.756.946.946 0 01.983.468l5.247 9.5 2.094-3.872a.951.951 0 011.658 0l14.16 26.16H15.016z" fill="#ffa000"/><path d="M32.545 30.001l-5.462-10.029-12.071 22.3z" fill="#f57c00"/><path d="M45 42.273l-3.886-23.335a.919.919 0 00-.639-.714.956.956 0 00-.947.223L15.017 42.273l13.566 7.381a2.886 2.886 0 002.741 0l13.68-7.381z" fill="#ffca28"/><path d="M41.119 18.939a.919.919 0 00-.639-.714.956.956 0 00-.947.223l-4.865 4.733-3.826-7.067a.951.951 0 00-1.658 0l-2.092 3.864-5.247-9.5a.946.946 0 00-.984-.467.922.922 0 00-.768.758l-5.074 31.505h-.016l.016.018.134.064L39.519 18.68a.957.957 0 01.949-.225.918.918 0 01.64.716l3.853 23.126.037-.023-3.879-23.335zm-26.058 23.29l5.029-31.235a.923.923 0 01.768-.758.947.947 0 01.984.467l5.247 9.5 2.092-3.864a.951.951 0 011.658 0l3.748 6.917-19.526 18.973z" fill="rgba(255,255,255,0.2)"/><path d="M31.32 49.431a2.886 2.886 0 01-2.741 0l-13.53-7.36-.033.2 13.567 7.381a2.886 2.886 0 002.741 0l13.68-7.378-.035-.209-13.649 7.366z" fill="#a52714" opacity=".2"/><path d="M50.006 14.934a.917.917 0 00-.637-.714.952.952 0 00-.944.223l-4.848 4.73-3.811-7.063a.946.946 0 00-1.653 0l-2.084 3.862L30.8 6.48a.942.942 0 00-.981-.467.921.921 0 00-.765.758L24 38.259l13.515 7.375a2.868 2.868 0 002.731 0l13.632-7.375-3.872-23.325z" transform="translate(-8.931 4.009)" fill="url(#a)"/></svg>