<svg xmlns="http://www.w3.org/2000/svg" width="30" height="40"><defs><linearGradient id="a" x1="-.035" y1=".17" x2="1.008" y2=".929" gradientUnits="objectBoundingBox"><stop offset="0" stop-color="#fff" stop-opacity=".102"/><stop offset=".14" stop-color="#fff" stop-opacity=".078"/><stop offset=".61" stop-color="#fff" stop-opacity=".02"/><stop offset="1" stop-color="#fff" stop-opacity="0"/></linearGradient></defs><path d="M.016 32.273L5.09.773a.923.923 0 01.769-.756.946.946 0 01.983.468l5.247 9.5 2.094-3.872a.951.951 0 011.658 0l14.16 26.16H.016z" fill="#ffa000"/><path d="M17.545 20.001L12.083 9.972.012 32.272z" fill="#f57c00"/><path d="M30 32.273L26.114 8.938a.919.919 0 00-.639-.714.956.956 0 00-.947.223L.017 32.273l13.566 7.381a2.886 2.886 0 002.741 0l13.68-7.381z" fill="#ffca28"/><path d="M26.119 8.939a.919.919 0 00-.639-.714.956.956 0 00-.947.223l-4.865 4.733-3.826-7.067a.951.951 0 00-1.658 0l-2.092 3.864-5.247-9.5a.946.946 0 00-.984-.467.922.922 0 00-.768.758L.019 32.274H.003l.016.018.134.064L24.519 8.68a.957.957 0 01.949-.225.918.918 0 01.64.716l3.853 23.126.037-.023-3.879-23.335zM.061 32.229L5.09.994a.923.923 0 01.768-.758.947.947 0 01.984.467l5.247 9.5 2.092-3.864a.951.951 0 011.658 0l3.748 6.917L.061 32.229z" fill="rgba(255,255,255,0.2)"/><path d="M16.32 39.431a2.886 2.886 0 01-2.741 0l-13.53-7.36-.033.2 13.567 7.381a2.886 2.886 0 002.741 0l13.68-7.378-.035-.209-13.649 7.366z" fill="#a52714" opacity=".2"/><path d="M50.006 14.934a.917.917 0 00-.637-.714.952.952 0 00-.944.223l-4.848 4.73-3.811-7.063a.946.946 0 00-1.653 0l-2.084 3.862L30.8 6.48a.942.942 0 00-.981-.467.921.921 0 00-.765.758L24 38.259l13.515 7.375a2.868 2.868 0 002.731 0l13.632-7.375-3.872-23.325z" transform="translate(-23.931 -5.991)" fill="url(#a)"/></svg>