<svg xmlns="http://www.w3.org/2000/svg" width="60" height="60"><path d="M48.183 20.461A20.667 20.667 0 0040.541 13 20.925 20.925 0 0030 10.25 20.927 20.927 0 0019.459 13a20.665 20.665 0 00-7.643 7.461A19.69 19.69 0 009 30.751a19.608 19.608 0 004.006 12.052 20.544 20.544 0 0010.349 7.408 1.247 1.247 0 001.094-.187 1.033 1.033 0 00.355-.8l-.014-1.441q-.014-1.361-.014-2.375l-.629.106a8.214 8.214 0 01-1.518.093 11.834 11.834 0 01-1.9-.187 4.3 4.3 0 01-1.832-.8 3.391 3.391 0 01-1.2-1.641l-.273-.614a6.644 6.644 0 00-.861-1.361 3.279 3.279 0 00-1.192-1.019l-.191-.134a1.99 1.99 0 01-.355-.321 1.46 1.46 0 01-.246-.374q-.082-.187.137-.308a1.812 1.812 0 01.793-.119l.547.08a4.035 4.035 0 011.354.641 4.352 4.352 0 011.326 1.388 4.746 4.746 0 001.518 1.669 3.273 3.273 0 001.791.574 7.96 7.96 0 001.559-.133 5.53 5.53 0 001.23-.4 4.286 4.286 0 011.34-2.75 19.136 19.136 0 01-2.8-.481 11.312 11.312 0 01-2.57-1.042 7.323 7.323 0 01-2.204-1.79 8.519 8.519 0 01-1.435-2.8 13.034 13.034 0 01-.56-4 7.684 7.684 0 012.16-5.5 7.019 7.019 0 01.191-5.445 3.915 3.915 0 012.352.36 16.628 16.628 0 012.283 1.028q.725.426 1.162.721a20.211 20.211 0 0110.5 0l1.039-.64a14.874 14.874 0 012.508-1.177 3.663 3.663 0 012.216-.293 6.952 6.952 0 01.218 5.445 7.685 7.685 0 012.16 5.5 13.18 13.18 0 01-.561 4.017 8.19 8.19 0 01-1.449 2.8 7.608 7.608 0 01-2.215 1.775 11.334 11.334 0 01-2.57 1.041 19.116 19.116 0 01-2.8.481 4.693 4.693 0 011.421 3.79v5.632a1.051 1.051 0 00.342.8 1.21 1.21 0 001.08.187 20.541 20.541 0 0010.35-7.407A19.612 19.612 0 0051 30.75a19.706 19.706 0 00-2.817-10.289z" fill="#fbfbfb"/></svg>