<svg xmlns="http://www.w3.org/2000/svg" width="60" height="60"><path d="M21.641 48.242q-.626.117-.547.586t.7.312q.626-.156.547-.547-.075-.429-.7-.351zm-2.227.313c-.417 0-.625.142-.625.429q0 .508.664.429.625 0 .625-.429 0-.507-.664-.429zm-3.046-.119q-.156.43.508.586.586.233.742-.235.117-.429-.508-.625c-.391-.103-.638-.013-.742.274z" fill="#263238"/><path d="M56.7 3.3A10.836 10.836 0 0048.75 0h-37.5A10.838 10.838 0 003.3 3.3 10.837 10.837 0 000 11.25v37.5a10.835 10.835 0 003.3 7.95 10.837 10.837 0 007.95 3.3H20a10.565 10.565 0 001.289-.058 1.512 1.512 0 00.859-.509 1.82 1.82 0 00.43-1.308l-.02-2.657q-.02-2.54-.02-4.024l-.9.156a11.5 11.5 0 01-2.168.137 16.683 16.683 0 01-2.715-.273 6.086 6.086 0 01-2.617-1.171 4.958 4.958 0 01-1.718-2.4l-.391-.9A9.758 9.758 0 0010.8 45a4.715 4.715 0 00-1.7-1.485l-.274-.2a2.872 2.872 0 01-.508-.469 2.17 2.17 0 01-.351-.547q-.117-.274.2-.45a2.54 2.54 0 011.133-.17l.781.117a5.7 5.7 0 011.934.937 6.3 6.3 0 011.894 2.031 6.884 6.884 0 002.168 2.441 4.6 4.6 0 002.558.84 11.1 11.1 0 002.227-.195 7.777 7.777 0 001.758-.587 6.331 6.331 0 011.914-4.024 26.75 26.75 0 01-4-.7 15.958 15.958 0 01-3.672-1.524A10.513 10.513 0 0113.71 38.4a12.583 12.583 0 01-2.051-4.1 19.509 19.509 0 01-.8-5.86 11.394 11.394 0 013.086-8.047 10.5 10.5 0 01.273-7.969 5.473 5.473 0 013.359.527 23.558 23.558 0 013.262 1.5q1.036.624 1.66 1.055a28.2 28.2 0 0115 0l1.484-.937a21.014 21.014 0 013.594-1.719 5.117 5.117 0 013.164-.43 10.4 10.4 0 01.312 7.968 11.4 11.4 0 013.087 8.047 19.7 19.7 0 01-.8 5.879 12.068 12.068 0 01-2.07 4.1 10.923 10.923 0 01-3.164 2.6 15.936 15.936 0 01-3.672 1.523 26.73 26.73 0 01-4 .7q2.03 1.757 2.03 5.546v9.336a2.514 2.514 0 00.195 1.074 1.079 1.079 0 00.625.567 3.462 3.462 0 00.762.195A8.77 8.77 0 0040 60h8.75A11.27 11.27 0 0060 48.748V11.25a10.838 10.838 0 00-3.3-7.95z" fill="#263238"/><path d="M11.875 43.671q-.273.195.078.625.391.39.625.117.273-.195-.079-.625-.389-.35-.624-.117zm-1.293-.976q-.117.274.274.469a.333.333 0 00.508-.078q.117-.274-.274-.47-.387-.117-.508.079zm2.504 2.5q-.352.195 0 .7t.664.273q.352-.274 0-.742c-.208-.335-.43-.414-.664-.231zm1.367 1.757c-.235.209-.183.455.156.743q.468.468.781.116.313-.312-.156-.742-.468-.467-.781-.117z" fill="#263238"/></svg>