<svg xmlns="http://www.w3.org/2000/svg" width="40" height="40"><path d="M14.428 32.161q-.417.078-.365.391t.469.208q.417-.1.365-.365-.05-.286-.469-.234zm-1.485.209c-.278 0-.417.095-.417.286q0 .338.443.286.417 0 .417-.286-.001-.338-.443-.286zm-2.031-.079q-.1.287.338.391.391.156.495-.156.078-.286-.338-.417c-.261-.069-.427-.009-.495.182z" fill="#fff"/><path d="M37.8 2.2A7.224 7.224 0 0032.5 0h-25a7.225 7.225 0 00-5.3 2.2A7.225 7.225 0 000 7.5v25a7.224 7.224 0 002.2 5.3A7.224 7.224 0 007.5 40h5.833a7.043 7.043 0 00.859-.039 1.008 1.008 0 00.573-.339 1.213 1.213 0 00.286-.872l-.013-1.771q-.013-1.693-.013-2.679l-.6.1a7.665 7.665 0 01-1.445.091 11.122 11.122 0 01-1.81-.182 4.057 4.057 0 01-1.745-.781 3.305 3.305 0 01-1.146-1.6l-.261-.6A6.505 6.505 0 007.2 30a3.143 3.143 0 00-1.133-.99l-.182-.13a1.915 1.915 0 01-.338-.313 1.447 1.447 0 01-.234-.365q-.078-.183.13-.3a1.693 1.693 0 01.755-.117l.521.078a3.8 3.8 0 011.289.625 4.2 4.2 0 011.262 1.355 4.589 4.589 0 001.445 1.628 3.064 3.064 0 001.706.56 7.4 7.4 0 001.484-.13 5.185 5.185 0 001.172-.391 4.221 4.221 0 011.276-2.683 17.833 17.833 0 01-2.669-.469 10.638 10.638 0 01-2.448-1.016A7.009 7.009 0 019.14 25.6a8.389 8.389 0 01-1.367-2.734 13.006 13.006 0 01-.534-3.907A7.6 7.6 0 019.3 13.592a7 7 0 01.179-5.312 3.649 3.649 0 012.24.352 15.705 15.705 0 012.175 1q.69.416 1.107.7a18.8 18.8 0 0110 0l.99-.625a14.009 14.009 0 012.4-1.146A3.411 3.411 0 0130.5 8.28a6.932 6.932 0 01.208 5.312 7.6 7.6 0 012.058 5.365 13.13 13.13 0 01-.534 3.919 8.046 8.046 0 01-1.38 2.735 7.282 7.282 0 01-2.109 1.732 10.624 10.624 0 01-2.448 1.015 17.82 17.82 0 01-2.669.469 4.638 4.638 0 011.354 3.7v6.224a1.676 1.676 0 00.13.716.719.719 0 00.417.378 2.308 2.308 0 00.508.13 5.847 5.847 0 00.638.026H32.5A7.513 7.513 0 0040 32.5v-25a7.225 7.225 0 00-2.2-5.3z" fill="#fff"/><path d="M7.917 29.115q-.182.13.052.416.261.26.417.078.182-.13-.052-.417-.261-.234-.417-.077zm-.859-.651q-.078.183.182.313a.222.222 0 00.338-.052q.078-.183-.182-.313-.26-.079-.338.052zm1.666 1.666q-.235.13 0 .469t.443.182q.235-.183 0-.495c-.139-.225-.287-.278-.443-.156zm.911 1.171c-.156.139-.122.3.1.5q.312.312.521.077.209-.208-.1-.494-.312-.316-.521-.083z" fill="#fff"/></svg>