<svg xmlns="http://www.w3.org/2000/svg" width="35" height="40"><path d="M25.815 26.162c4.428-2.6 7.814-4.582 8.1-4.736.926-.526 1.881-1.919 0-3-.608-.341-3.878-2.26-8.1-4.736l-5.817 6.249z" fill="#ffd400"/><path d="M19.998 19.94L1.418 39.969a2.338 2.338 0 001.5-.4l22.892-13.4-5.812-6.229z" fill="#f33"/><path d="M19.998 19.94l5.817-6.253S4.225 1.087 2.923.345a2.14 2.14 0 00-1.534-.31z" fill="#48ff48"/><path d="M20 19.939L1.389.034C.637.22 0 .934 0 2.387v35.229C0 38.947.492 39.907 1.418 40z" fill="#3bccff"/></svg>