<svg xmlns="http://www.w3.org/2000/svg" width="554.922" height="616.922"><defs><linearGradient id="a" x1="-.173" y1=".5" x2="1.173" y2=".5" gradientUnits="objectBoundingBox"><stop offset="0" stop-color="#39b54a"/><stop offset="1" stop-color="#0f0"/></linearGradient></defs><g transform="translate(-489.291 -464.431)"><rect width="215.735" height="400.165" rx="23" transform="translate(722.248 541.027)" fill="#515b60"/><rect width="203.154" height="377.51" rx="15" transform="translate(728.439 552.867)" fill="#2e393e"/><rect width="55.132" height="13.159" rx="6.58" transform="translate(803.148 546.287)" fill="#515b60"/><rect width="8.38" height="37.177" rx="4.19" transform="translate(932.294 614.717)" fill="#515b60"/><rect width="8.38" height="37.177" rx="4.19" transform="translate(932.294 655.049)" fill="#515b60"/><path d="M6.449 1.151L58.521-.741a4.686 4.686 0 014.927 4.927l-1.892 52.072a5.585 5.585 0 01-5.3 5.3l-52.07 1.889a4.686 4.686 0 01-4.927-4.926L1.151 6.449a5.585 5.585 0 015.298-5.298z" transform="rotate(-45 1166.296 -627.31)" fill="url(#a)"/><path d="M855.337 472.76l7.093-7.628a.937.937 0 011.393 0l7.097 7.631a1.117 1.117 0 010 1.5l-7.094 7.628a.937.937 0 01-1.396-.003l-7.093-7.628a1.117 1.117 0 010-1.5z" fill="#7d8488"/><path d="M1.29.23L11.7-.148a.937.937 0 01.985.985l-.378 10.414a1.117 1.117 0 01-1.06 1.06l-10.41.378a.937.937 0 01-.985-.989L.23 1.29A1.117 1.117 0 011.29.23z" transform="rotate(-45 1107.586 -437.471)" fill="url(#a)"/><path d="M1.29.23L11.7-.148a.937.937 0 01.985.985l-.378 10.414a1.117 1.117 0 01-1.06 1.06l-10.41.378a.937.937 0 01-.985-.989L.23 1.29A1.117 1.117 0 011.29.23z" transform="rotate(-45 1279.701 -863.767)" fill="url(#a)"/><path d="M1.29.23L11.7-.148a.937.937 0 01.985.985l-.378 10.414a1.117 1.117 0 01-1.06 1.06l-10.41.378a.937.937 0 01-.985-.989L.23 1.29A1.117 1.117 0 011.29.23z" transform="rotate(-45 1200.767 -194.886)" fill="url(#a)"/><path d="M956.634 828.693l7.093-7.628a.937.937 0 011.393 0l7.097 7.631a1.117 1.117 0 010 1.5l-7.094 7.628a.937.937 0 01-1.396-.003l-7.093-7.628a1.117 1.117 0 010-1.5zM601.1 1071.524l7.093-7.628a.937.937 0 011.393 0l7.097 7.631a1.117 1.117 0 010 1.5l-7.094 7.628a.937.937 0 01-1.396-.003l-7.093-7.628a1.117 1.117 0 010-1.5z" fill="#7d8488"/><path d="M1.29.23L11.7-.148a.937.937 0 01.985.985l-.378 10.414a1.117 1.117 0 01-1.06 1.06l-10.41.378a.937.937 0 01-.985-.989L.23 1.29A1.117 1.117 0 011.29.23z" transform="rotate(-45 1681.59 -754.822)" fill="url(#a)"/><path d="M796.996 638.33l30.526-32.83a2.683 2.683 0 013.988 0l30.527 32.829a4.227 4.227 0 010 5.67l-29.885 32.139a3.547 3.547 0 01-5.273 0l-29.885-32.139a4.227 4.227 0 01.002-5.669z" fill="#2e353a"/><path d="M822.919 643.322v12.026h-3.509v-31.815h8.23q4.8 0 7.447 2.485a9.159 9.159 0 012.642 7.011 9.94 9.94 0 01-2.935 7.411 10.817 10.817 0 01-7.927 2.885zm0-16.419v13.049h3.677a7.9 7.9 0 005.546-1.764 6.442 6.442 0 001.912-4.982q0-6.3-7.019-6.3zm18.648 28.402a4.747 4.747 0 01-1.963.342q-3.453 0-3.452-3.208v-6.48h-2.263v-1.495h2.259v-2.673l2.1-.567v3.24h3.311v1.5h-3.311v6.17a2.24 2.24 0 00.449 1.572 1.993 1.993 0 001.489.47 2.525 2.525 0 001.373-.364z" fill="#fff"/><rect width="170.706" height="45.236" rx="5" transform="translate(745.361 721.142)" fill="#586165"/><rect width="170.706" height="45.236" rx="5" transform="translate(744.163 777.65)" fill="#586165"/><rect width="170.706" height="45.236" rx="5" transform="translate(745.361 834.159)" fill="#586165"/><path d="M553.893 750.853H836.87a14.173 14.173 0 0114.173 14.173v8.5H539.72v-8.5a14.173 14.173 0 0114.173-14.173z" fill="#1c262a" opacity=".75"/><path d="M539.72 773.522h311.323v212.09a14.173 14.173 0 01-14.173 14.173H553.893a14.173 14.173 0 01-14.173-14.173v-212.09z" fill="#1c262a" opacity=".62"/><path d="M541.759 773.522h307.158v212.9a11.339 11.339 0 01-11.339 11.339h-284.48a11.339 11.339 0 01-11.339-11.339v-212.9z" fill="#13191c" opacity=".29"/><ellipse cx="3.896" cy="4.19" rx="3.896" ry="4.19" transform="translate(549.458 757.997)" fill="#c1272d"/><ellipse cx="3.896" cy="4.19" rx="3.896" ry="4.19" transform="translate(560.577 757.997)" fill="#fbb03b"/><ellipse cx="3.896" cy="4.19" rx="3.896" ry="4.19" transform="translate(572.456 757.997)" fill="#009245"/><path fill="#854d7d" d="M560.577 791.99h98.358v8.278h-98.358zm0 16.864h60.865v8.278h-60.865z"/><path fill="#4d7285" d="M666.632 791.99h46.615v8.278h-46.615z"/><path fill="#b5b6ac" d="M661.215 808.854h46.615v8.278h-46.615z"/><path fill="#4d7285" d="M627.572 808.854h28.653v8.278h-28.653z"/><path fill="#854d7d" d="M560.577 833.995h111.899v8.278H560.577zm0 133.987h144.687v8.278H560.577zm0-117.123h32.639v8.278h-32.639z"/><path fill="#4d7285" d="M679.034 833.995h68.426v8.278h-68.426zm32.502 133.987h68.426v8.278h-68.426z"/><path fill="#33a86a" d="M661.215 850.859h68.283v8.278h-68.283z"/><path fill="#4d7285" d="M599.203 850.859h57.022v8.278h-57.022z"/><path fill="#854d7d" d="M560.577 867.722h15.776V876h-15.776z"/><path fill="#e5c657" d="M642.611 867.722h27.227V876h-27.227z"/><path fill="#4d7285" d="M581.245 867.722h57.022V876h-57.022z"/><path fill="#6d8afc" d="M560.577 901.448h57.022v8.278h-57.022zm0 15.331h57.022v8.278h-57.022z"/><path fill="#33a86a" d="M560.577 932.109h57.022v8.278h-57.022z"/></g></svg>