<svg xmlns="http://www.w3.org/2000/svg" width="288.333" height="203.283"><path d="M7.483 0h273.352a7.7 7.7 0 015.3 2.073 6.915 6.915 0 012.2 5.023v11.432H0V7.1A7.3 7.3 0 017.483 0zM0 18.528h288.333v177.659a7.3 7.3 0 01-7.483 7.1H7.483a7.3 7.3 0 01-7.483-7.1z" fill="#7d8488"/><path d="M1.891 18.528h284.457v177.424a5.84 5.84 0 01-5.988 5.679H7.869a5.839 5.839 0 01-5.978-5.679z" fill="#fff"/><ellipse cx="3.607" cy="3.42" rx="3.607" ry="3.42" transform="translate(9.02 5.834)" fill="#fbb03b"/><ellipse cx="3.607" cy="3.42" rx="3.607" ry="3.42" transform="translate(19.317 5.834)" fill="#6fb353"/><ellipse cx="3.607" cy="3.42" rx="3.607" ry="3.42" transform="translate(30.317 5.834)" fill="#c1272d"/><g transform="translate(94 40.642)"><rect width="33.336" height="86.963" rx="9.23" transform="translate(33.336)" fill="#3cf"/><rect width="28.988" height="100" rx="8.06" transform="rotate(-90 28.988 28.988)" fill="#3cf"/><rect width="24.958" height="43.538" rx="12.479" transform="translate(36.615 11.074)" fill="#fff"/><path d="M12.265 43.391v-.033c0-6.275 5.818-11.386 13.053-11.406l22.959-.08c7.243 0 13.143 5.045 13.143 11.3v.033c0 6.275-5.818 11.386-13.053 11.406l-22.959.08c-7.222.04-13.108-5.025-13.143-11.3z" fill="#fff"/><path d="M65.183 53.895l-15.1.711c9.166 0 16.6 4.573 16.6 10.216l7.8-6.846a13.126 13.126 0 01-12.889-13.361l-11.5 9.971" fill="#fff"/><path d="M59.72 86.963H38.427c-2.815 0-5.091-1.994-5.091-4.427V58.78a29.573 29.573 0 0115.834 4.44 22.309 22.309 0 015.714 4.972c4.04 4.939 5.375 11.785 5.375 18.811M0 43.484v10.064c0 2.446 2.283 4.427 5.091 4.427h8.218C5.956 57.975 0 51.408 0 43.285M51.882 0h9.159c3.106 0 5.631 2.194 5.631 4.892v5.079C66.672 4.46 61.182 0 54.4 0" fill="#036"/><path fill="none" d="M68 29h32"/><path d="M94.356 28.988H68.484c0 12.889 13.918 23.484 31.516 23.484V33.9c0-2.712-2.531-4.912-5.644-4.912z" fill="#036"/><path d="M1.688 95.977V99.6h5.029v-3.623h1.384v8.641H6.717v-4.061H1.688v4.061H.346v-8.641zm15.419 5.504c0 2.3-1.909 3.324-3.715 3.324-2.02 0-3.576-1.236-3.576-3.2 0-2.081 1.633-3.324 3.7-3.324a3.282 3.282 0 013.591 3.2zm-5.921.066a2.251 2.251 0 002.413 1.949 2.185 2.185 0 00-.117-4.369 2.245 2.245 0 00-2.3 2.42zm7.45 1.94a4.076 4.076 0 001.792.452c.989 0 1.453-.412 1.453-.924s-.387-.838-1.384-1.143c-1.342-.4-1.972-1.017-1.972-1.761 0-1 .968-1.828 2.573-1.828a4.293 4.293 0 011.833.386l-.339.824a3.337 3.337 0 00-1.529-.359c-.8 0-1.252.386-1.252.851s.45.744 1.418 1.057c1.294.412 1.958.951 1.958 1.874 0 1.09-1.017 1.861-2.767 1.861a4.946 4.946 0 01-2.075-.425zm6.267-3.03a20.04 20.04 0 00-.062-2.031h1.217l.062 1.07a3.105 3.105 0 012.649-1.21 3.171 3.171 0 012.3.917 2.918 2.918 0 01.86 2.247 3.069 3.069 0 01-.927 2.385 3.337 3.337 0 01-2.462.939 2.817 2.817 0 01-2.255-.964v3.383h-1.382zm1.384 1.655a2.138 2.138 0 00.062.465 2.075 2.075 0 002.034 1.329 2.182 2.182 0 002.269-2.406 2.076 2.076 0 00-.578-1.628 2.257 2.257 0 00-1.643-.685 2.113 2.113 0 00-2.075 1.4 1.566 1.566 0 00-.09.465zm8.923-5.437c0 .386-.325.665-.865.665a.775.775 0 01-.552-.169.716.716 0 01-.264-.5.734.734 0 01.268-.528.8.8 0 01.583-.177.774.774 0 01.575.178.713.713 0 01.255.531zm-1.508 7.976v-6.222h1.384v6.222zm5.243-8.016v1.788h1.944v.864h-1.944v3.324c0 .771.263 1.21 1.017 1.21a3.6 3.6 0 00.789-.08l.062.851a3.929 3.929 0 01-1.2.153 2.129 2.129 0 01-1.467-.479 2.04 2.04 0 01-.526-1.622v-3.4h-1.158v-.864h1.155v-1.489zm7.604 8.009l-.111-.784h-.048a3 3 0 01-2.283.924c-1.508 0-2.283-.891-2.283-1.788 0-1.5 1.6-2.326 4.489-2.313v-.126c0-.512-.173-1.442-1.695-1.442a4.286 4.286 0 00-1.944.465l-.31-.746a5.354 5.354 0 012.449-.552c2.283 0 2.836 1.329 2.836 2.546v2.326a7.34 7.34 0 00.125 1.489zm-.2-3.177c-1.48 0-3.161.193-3.161 1.4a1.072 1.072 0 00.387.816 1.166 1.166 0 00.893.261 1.864 1.864 0 001.805-1.044 1.008 1.008 0 00.076-.359zm3.499-5.949h1.384v9.126h-1.384zm14.216 8.845a7.843 7.843 0 01-2.767.412c-2.933 0-5.133-1.542-5.133-4.387 0-2.712 2.207-4.553 5.43-4.553a6.541 6.541 0 012.47.386l-.325.911a5.735 5.735 0 00-2.075-.359c-2.435 0-4.054 1.329-4.054 3.576 0 2.12 1.467 3.483 3.991 3.483a6.3 6.3 0 002.193-.359zm1.653-8.845h1.384v9.126h-1.384zm6.385.199l-1.882 1.841h-.968l1.384-1.841zm-2.767 8.914v-6.222h1.384v6.222zm3.611-4.527a13.859 13.859 0 00-.062-1.682h1.2l.076 1.03a2.87 2.87 0 012.47-1.17 2.566 2.566 0 011.956.745 2.356 2.356 0 01.679 1.914v3.716h-1.384v-3.622a1.615 1.615 0 00-1.729-1.841 1.905 1.905 0 00-1.819 1.157 1.379 1.379 0 00-.09.525v3.742h-1.38zm10.065-3.429c0 .386-.325.665-.865.665a.775.775 0 01-.552-.169.716.716 0 01-.264-.5.734.734 0 01.268-.528.8.8 0 01.583-.177.774.774 0 01.575.178.713.713 0 01.255.527zm-1.508 7.976v-6.222h1.384v6.222zm8.937-.239a5.85 5.85 0 01-2.144.359c-2.248 0-3.715-1.276-3.715-3.177s1.57-3.324 4.012-3.324a5.32 5.32 0 011.882.319l-.311.877a3.667 3.667 0 00-1.57-.292 2.481 2.481 0 00-2.388 1.044 2.269 2.269 0 00-.026 2.52 2.477 2.477 0 002.365 1.089 4.5 4.5 0 001.667-.306zm8.246-2.931c0 2.3-1.909 3.324-3.715 3.324-2.02 0-3.576-1.236-3.576-3.2 0-2.081 1.633-3.324 3.7-3.324a3.282 3.282 0 013.591 3.2zm-5.921.066a2.251 2.251 0 002.413 1.949 2.185 2.185 0 00-.117-4.369 2.245 2.245 0 00-2.296 2.42z" fill="#3cf"/><path d="M10.556 117.592c-.083-1.329-.187-2.991-.173-4.208h-.048a48.924 48.924 0 01-1.467 3.7l-2.075 4.726h-1.12l-1.882-4.653a38.716 38.716 0 01-1.349-3.789c0 1.216-.118 2.852-.221 4.307l-.315 4.185H.436l.809-9.745h1.923l1.985 4.713c.484 1.2.879 2.273 1.176 3.284h.048a32.839 32.839 0 011.229-3.267l2.075-4.713h1.916l.692 9.745h-1.442zm5.783 1.216l-1.211 3.064h-1.549l3.957-9.745h1.833l3.971 9.745h-1.633l-1.245-3.064zm3.818-.984l-1.141-2.832a24.164 24.164 0 01-.6-1.781c-.173.578-.36 1.17-.588 1.761l-1.141 2.818zm13.462 3.617a12.725 12.725 0 01-3.576.532 6.714 6.714 0 01-4.351-1.29 4.57 4.57 0 01-1.626-3.629c0-2.9 2.4-5.032 6.3-5.032a8.422 8.422 0 012.9.445l-.359 1.026a7.042 7.042 0 00-2.573-.419c-2.829 0-4.676 1.476-4.676 3.922s1.778 3.935 4.489 3.935a5.744 5.744 0 002.006-.259v-2.9h-2.366v-1.01h3.832zm4.179-2.633l-1.21 3.065h-1.55l3.957-9.745h1.819l3.971 9.745h-1.619l-1.245-3.064zm3.818-.984l-1.141-2.832a24.164 24.164 0 01-.6-1.781c-.173.578-.36 1.17-.588 1.761l-1.141 2.818zm4.863-5.696h1.5v8.694h4.974v1.057h-6.474zm8.17 0h1.5v8.694h4.974v1.057h-6.474zm10.009 6.68l-1.211 3.064h-1.549l3.957-9.745h1.812l3.971 9.745h-1.6l-1.25-3.064zm3.825-.984l-1.148-2.832a24.164 24.164 0 01-.6-1.781c-.173.578-.36 1.17-.588 1.761l-1.141 2.818zm4.843 4.049v-9.745h1.639l3.729 4.932a26.651 26.651 0 012.075 3.164h.035a36.287 36.287 0 01-.173-3.988v-4.081h1.383v9.745h-1.522l-3.694-4.945a29.868 29.868 0 01-2.089-3.29h-.055c.083 1.23.125 2.4.125 3.988v4.168zm17.405-4.567h-4.524v3.516h5.043v1.057h-6.544v-9.751h6.288v1.057h-4.78v3.078h4.524zm2.254 3.004a6.106 6.106 0 002.691.665c1.536 0 2.435-.665 2.435-1.662s-.623-1.429-2.193-1.941c-1.9-.565-3.071-1.389-3.071-2.765 0-1.516 1.5-2.659 3.763-2.659a6.131 6.131 0 012.573.479l-.415 1.024a5.352 5.352 0 00-2.207-.465c-1.591 0-2.193.8-2.193 1.462 0 .911.692 1.329 2.31 1.881 1.971.665 2.968 1.429 2.968 2.865s-1.328 2.805-4.074 2.805a6.947 6.947 0 01-2.968-.625z" fill="#036"/></g></svg>