<svg xmlns="http://www.w3.org/2000/svg" width="80" height="80"><path d="M19.658 5h3.17v3.117h2.922V5h3.17v9.434h-3.17v-3.145h-2.892v3.145h-3.2m13.451-6.289h-2.8V5h8.779v3.145h-2.811v6.289h-3.17M40.482 5h3.321l2.04 3.322L47.883 5h3.321v9.434h-3.17V9.758l-2.219 3.391-2.219-3.391v4.676h-3.115M52.775 5h3.17v6.316h4.493v3.118h-7.663" fill="#fff"/><path d="M19.548 69.395L15 18.754h50l-4.548 50.613L39.959 75" fill="#e44d26"/><path d="M40 70.693V22.91h20.438l-3.9 43.2" fill="#f16529"/><path d="M24.289 29.104H40v6.207h-8.848l.579 6.357H40v6.193H26m.276 3.117h6.284l.441 4.963 7 1.859v6.48l-12.845-3.555" fill="#ebebeb"/><path d="M55.656 29.104H39.972v6.207h15.1m-.565 6.357H39.972v6.207h7.718l-.73 8.066-6.988 1.863v6.453l12.817-3.527" fill="#fff"/></svg>