<svg xmlns="http://www.w3.org/2000/svg" width="60" height="60"><path d="M17.795 10.25h1.9v1.781h1.753V10.25h1.9v5.391h-1.9v-1.8h-1.736v1.8h-1.917m8.071-3.591h-1.679v-1.8h5.267v1.8h-1.687v3.591h-1.9m4.422-5.391h1.993l1.224 1.9 1.224-1.9h1.993v5.391h-1.9v-2.672l-1.331 1.938-1.331-1.938v2.672h-1.869m7.373-5.391h1.9v3.609h2.7v1.782h-4.6" fill="#fff"/><path d="M17.729 47.047L15 18.109h30l-2.729 28.922-12.3 3.219" fill="#e44d26"/><path d="M30 47.784v-27.3h12.263l-2.34 24.688" fill="#f16529"/><path d="M20.573 24.023H30v3.547h-5.309l.347 3.633h4.961v3.539h-8.4m.165 1.781h3.771l.265 2.836 4.2 1.063v3.7l-7.707-2.031" fill="#ebebeb"/><path d="M39.393 24.023h-9.41v3.547h9.063m-.339 3.633h-8.724v3.547h4.631l-.438 4.609-4.193 1.064v3.688l7.69-2.016" fill="#fff"/></svg>