<svg xmlns="http://www.w3.org/2000/svg" width="70" height="90"><path d="M6.522 0h4.438v4.008h4.09V0h4.438v12.129H15.05V8.086h-4.052v4.043H6.522m18.831-8.086h-3.917V0h12.291v4.043h-3.936v8.086h-4.438M35.676 0h4.65l2.856 4.271L46.037 0h4.65v12.129h-4.438V6.117l-3.106 4.359-3.106-4.359v6.012h-4.361M52.886 0h4.436v8.121h6.29v4.008H52.886" fill="#fff"/><path d="M6.367 82.793L0 17.684h70l-6.367 65.074L34.942 90" fill="#e44d26"/><path d="M35 84.463V23.027h28.614l-5.46 55.547" fill="#f16529"/><path d="M13.004 30.99h22v7.98H22.613l.81 8.174h11.581v7.963h-19.6m.386 4.008h8.8l.617 6.381 9.797 2.394v8.332l-17.982-4.57" fill="#ebebeb"/><path d="M56.918 30.99H34.961v7.98h21.147m-.791 8.174H34.961v7.98h10.8l-1.023 10.371-9.777 2.395v8.3l17.944-4.535" fill="#fff"/></svg>