<svg xmlns="http://www.w3.org/2000/svg" width="30" height="40"><path d="M2.795 0h1.9v1.781h1.753V0h1.9v5.391h-1.9v-1.8H4.712v1.8H2.795M10.866 1.8H9.187V0h5.267v1.8h-1.687v3.591h-1.9M15.289 0h1.993l1.224 1.9L19.73 0h1.993v5.391h-1.9V2.719l-1.331 1.938-1.331-1.938v2.672h-1.869M22.665 0h1.9v3.609h2.7v1.782h-4.6" fill="#fff"/><path d="M2.729 36.797L0 7.859h30l-2.729 28.922L14.971 40" fill="#e44d26"/><path d="M15 37.534v-27.3h12.263l-2.34 24.688" fill="#f16529"/><path d="M5.573 13.773H15v3.547H9.691l.347 3.633h4.961v3.539h-8.4m.165 1.781h3.771l.265 2.836 4.2 1.063v3.7l-7.707-2.031" fill="#ebebeb"/><path d="M24.393 13.773h-9.41v3.547h9.063m-.339 3.633h-8.724V24.5h4.631l-.438 4.609-4.193 1.064v3.688l7.69-2.016" fill="#fff"/></svg>