<svg xmlns="http://www.w3.org/2000/svg" width="60" height="60"><path d="M25.162 40.498s-1.554.889 1.106 1.19a23.661 23.661 0 008.423-.351 14.751 14.751 0 002.238 1.075c-7.963 3.356-18.022-.194-11.767-1.913m-.973-4.38s-1.743 1.269.919 1.54a33.4 33.4 0 0010.868-.513 4.833 4.833 0 001.674 1c-9.628 2.768-20.351.218-13.461-2.03" fill="#5382a1"/><path d="M32.392 28.69c1.962 2.221-.515 4.22-.515 4.22s4.982-2.529 2.694-5.7c-2.137-2.953-3.776-4.421 5.1-9.48 0 0-13.925 3.42-7.274 10.956" fill="#e76f00"/><path d="M42.923 43.737s1.15.932-1.267 1.653c-4.6 1.369-19.13 1.783-23.168.055-1.451-.621 1.27-1.483 2.127-1.663a5.608 5.608 0 011.4-.155c-1.614-1.118-10.433 2.2-4.479 3.144 16.236 2.589 29.6-1.166 25.384-3.034M25.913 31.581s-7.393 1.727-2.618 2.354a56.459 56.459 0 009.779-.1c3.06-.254 6.132-.793 6.132-.793a13.06 13.06 0 00-1.859.978c-7.507 1.942-22.01 1.038-17.835-.948a14.191 14.191 0 016.4-1.488m13.259 7.287c7.632-3.9 4.1-7.647 1.64-7.142a5.779 5.779 0 00-.873.231 1.385 1.385 0 01.652-.495c4.872-1.685 8.62 4.968-1.573 7.6a.653.653 0 00.153-.2" fill="#5382a1"/><path d="M34.566 9.564s4.231 4.158-4 10.551c-6.6 5.128-1.506 8.053 0 11.393-3.855-3.42-6.684-6.431-4.786-9.233 2.778-4.112 10.495-6.106 8.786-12.711" fill="#e76f00"/><path d="M26.659 49.438c7.325.461 18.574-.256 18.841-3.664 0 0-.512 1.292-6.054 2.318a61.236 61.236 0 01-18.537.28s.936.762 5.751 1.066" fill="#5382a1"/></svg>