<svg xmlns="http://www.w3.org/2000/svg" width="80" height="80"><path d="M30.603 59.264s-2.591 1.556 1.844 2.082a37.6 37.6 0 0014.038-.615 24.131 24.131 0 003.73 1.881c-13.271 5.873-30.036-.34-19.612-3.348M28.981 51.6s-2.906 2.221 1.532 2.695a53.073 53.073 0 0018.113-.9 8.018 8.018 0 002.79 1.756c-16.046 4.845-33.919.382-22.435-3.553" fill="#5382a1"/><path d="M42.653 38.599c3.27 3.887-.859 7.386-.859 7.386s8.3-4.426 4.49-9.968c-3.562-5.168-6.293-7.737 8.493-16.591 0 0-23.209 5.985-12.124 19.173" fill="#e76f00"/><path d="M60.205 64.933s1.917 1.631-2.112 2.893c-7.66 2.4-31.884 3.12-38.613.1-2.419-1.086 2.117-2.594 3.544-2.911a8.914 8.914 0 012.339-.271c-2.69-1.957-17.388 3.842-7.466 5.5 27.059 4.531 49.326-2.04 42.307-5.309M31.849 43.659s-12.322 3.022-4.363 4.119c3.36.465 10.059.36 16.3-.18 5.1-.444 10.219-1.388 10.219-1.388a21.4 21.4 0 00-3.1 1.712c-12.512 3.4-36.684 1.817-29.725-1.658a22.687 22.687 0 0110.67-2.6m22.103 12.752c12.719-6.824 6.839-13.383 2.734-12.5a9.272 9.272 0 00-1.455.4 2.337 2.337 0 011.087-.866c8.121-2.948 14.366 8.694-2.621 13.305a1.133 1.133 0 00.256-.344" fill="#5382a1"/><path d="M46.284 5.129s7.044 7.276-6.681 18.464c-11.006 8.975-2.51 14.092 0 19.939-6.425-5.985-11.139-11.254-7.976-16.157 4.642-7.2 17.5-10.688 14.662-22.245" fill="#e76f00"/><path d="M33.099 74.908c12.209.807 30.957-.448 31.4-6.412 0 0-.853 2.261-10.09 4.057a97.259 97.259 0 01-30.9.491s1.561 1.334 9.585 1.865" fill="#5382a1"/></svg>