<svg xmlns="http://www.w3.org/2000/svg" width="90" height="90"><path fill="#f7df1e" d="M0 0h90v90H0z"/><path d="M60.457 70.312c1.813 2.96 4.171 5.136 8.343 5.136 3.5 0 5.743-1.751 5.743-4.171 0-2.9-2.3-3.927-6.157-5.614l-2.114-.907c-6.1-2.6-10.157-5.857-10.157-12.743 0-6.343 4.833-11.171 12.386-11.171 5.377 0 9.243 1.871 12.029 6.771l-6.586 4.229c-1.45-2.6-3.014-3.624-5.443-3.624-2.477 0-4.047 1.571-4.047 3.624 0 2.537 1.571 3.564 5.2 5.136l2.114.906c7.186 3.081 11.243 6.223 11.243 13.286 0 7.614-5.981 11.786-14.014 11.786-7.854 0-12.929-3.743-15.411-8.649zm-29.876.733c1.329 2.357 2.537 4.35 5.443 4.35 2.779 0 4.531-1.087 4.531-5.314V41.324h8.462v28.871c0 8.757-5.134 12.743-12.629 12.743-6.771 0-10.693-3.5-12.687-7.725z" fill="#263238"/></svg>