<svg xmlns="http://www.w3.org/2000/svg" width="40" height="40"><path fill="#f7df1e" d="M0 0h40v40H0z"/><path d="M26.87 31.25a4.094 4.094 0 003.708 2.283c1.557 0 2.552-.778 2.552-1.854 0-1.289-1.022-1.745-2.736-2.5l-.94-.4c-2.712-1.156-4.514-2.6-4.514-5.663 0-2.819 2.148-4.965 5.5-4.965a5.556 5.556 0 015.346 3.01l-2.927 1.879a2.556 2.556 0 00-2.419-1.611 1.635 1.635 0 00-1.8 1.611c0 1.128.7 1.584 2.311 2.283l.94.4c3.194 1.37 5 2.766 5 5.9 0 3.384-2.658 5.238-6.229 5.238a7.222 7.222 0 01-6.85-3.844zm-13.278.326c.59 1.048 1.128 1.933 2.419 1.933 1.235 0 2.014-.483 2.014-2.362V18.362h3.759v12.832c0 3.892-2.282 5.664-5.613 5.664a5.835 5.835 0 01-5.639-3.433z" fill="#263238"/></svg>