<svg xmlns="http://www.w3.org/2000/svg" width="80" height="80"><path fill="#f7df1e" d="M15 15h50v50H15z"/><path d="M48.585 54.063a5.117 5.117 0 004.635 2.853c1.947 0 3.19-.973 3.19-2.317 0-1.611-1.278-2.182-3.421-3.119l-1.175-.5c-3.391-1.444-5.643-3.254-5.643-7.079 0-3.524 2.685-6.206 6.881-6.206a6.945 6.945 0 016.683 3.762L56.079 43.8a3.2 3.2 0 00-3.024-2.013 2.044 2.044 0 00-2.248 2.013c0 1.41.873 1.98 2.889 2.853l1.175.5c3.992 1.712 6.246 3.457 6.246 7.381 0 4.23-3.323 6.548-7.786 6.548-4.363 0-7.183-2.079-8.562-4.8zm-16.6.407c.738 1.31 1.41 2.417 3.024 2.417 1.544 0 2.517-.6 2.517-2.952V37.958h4.7V54c0 4.865-2.852 7.079-7.016 7.079a7.294 7.294 0 01-7.048-4.292z" fill="#263238"/></svg>