<svg xmlns="http://www.w3.org/2000/svg" width="70.001" height="70.001"><defs><linearGradient id="a" x1="-.173" y1=".5" x2="1.173" y2=".5" gradientUnits="objectBoundingBox"><stop offset="0" stop-color="#39b54a"/><stop offset="1" stop-color="#0f0"/></linearGradient></defs><g data-name="Capa 1"><path data-name="Trazado 264" d="M5.074 1L45.618.007A3.754 3.754 0 0149.5 3.89l-.989 40.544a4.224 4.224 0 01-4.078 4.078L3.89 49.5a3.754 3.754 0 01-3.883-3.882L1 5.074A4.224 4.224 0 015.074 1z" transform="rotate(-45 42.246 17.51)" fill="url(#a)"/><path data-name="Trazado 265" d="M7.165 34.876L34.877 5.771l27.718 29.105-27.718 29.105z" fill="#263238"/><path data-name="Trazado 262" d="M29.801 36.816v9.26h-2.767V21.587h6.489a8.363 8.363 0 015.87 1.913 6.958 6.958 0 012.083 5.4 7.557 7.557 0 01-2.314 5.7 8.634 8.634 0 01-6.25 2.216zm0-12.638v10.046h2.9a6.315 6.315 0 004.372-1.357 4.913 4.913 0 001.507-3.834q0-4.85-5.533-4.85z" fill="#fff"/><path data-name="Trazado 263" d="M44.499 46.041a3.807 3.807 0 01-1.547.266q-2.721 0-2.721-2.469v-4.99H38.45v-1.152h1.78v-2.058l1.659-.436v2.494h2.61v1.152h-2.61v4.749a1.7 1.7 0 00.354 1.21 1.594 1.594 0 001.174.362 2.025 2.025 0 001.083-.28z" fill="#fff"/></g></svg>