<svg xmlns="http://www.w3.org/2000/svg" width="162" height="296.933"><g transform="translate(-3330 -4066.534)"><rect width="160.009" height="296.933" rx="16" transform="translate(3330 4066.534)" fill="#515b60"/><rect width="149.371" height="280.12" rx="12" transform="translate(3335.333 4075.321)" fill="#714acd"/><rect width="40.891" height="12.549" rx="6" transform="translate(3390.004 4069.546)" fill="#515b60"/><rect width="6.214" height="27.587" rx="2.69" transform="translate(3485.786 4121.215)" fill="#515b60"/><rect width="6.214" height="27.587" rx="2.69" transform="translate(3485.786 4151.14)" fill="#515b60"/><g transform="translate(3288 4092)" fill="#fff"><circle cx="9" cy="9" r="9" transform="translate(85 99)"/><circle cx="9" cy="9" r="9" transform="translate(113 99)"/><circle cx="9" cy="9" r="9" transform="translate(141 99)"/></g><path d="M3364.434 4233.434V4239h-1.875v-14.219h5.241a5.269 5.269 0 013.657 1.191 4.039 4.039 0 011.323 3.154 3.986 3.986 0 01-1.294 3.188 5.5 5.5 0 01-3.706 1.118zm0-1.533h3.366a3.369 3.369 0 002.3-.709 2.593 2.593 0 00.8-2.05 2.679 2.679 0 00-.8-2.035 3.156 3.156 0 00-2.2-.792h-3.477zm12.266-2.188a3.841 3.841 0 013.125-1.475q3.35 0 3.379 3.779V4239h-1.804v-6.992a2.432 2.432 0 00-.522-1.689 2.094 2.094 0 00-1.6-.547 2.607 2.607 0 00-1.543.469 3.183 3.183 0 00-1.035 1.23V4239h-1.807v-15h1.807zm8.73 3.906a6.241 6.241 0 01.61-2.793 4.553 4.553 0 011.7-1.914 4.626 4.626 0 012.485-.674 4.456 4.456 0 013.491 1.494 5.748 5.748 0 011.333 3.975v.127a6.3 6.3 0 01-.591 2.766 4.486 4.486 0 01-1.689 1.912 4.679 4.679 0 01-2.525.688 4.445 4.445 0 01-3.481-1.5 5.719 5.719 0 01-1.333-3.954zm1.816.215a4.52 4.52 0 00.815 2.822 2.61 2.61 0 002.183 1.064 2.594 2.594 0 002.188-1.079 4.943 4.943 0 00.811-3.022 4.513 4.513 0 00-.826-2.819 2.623 2.623 0 00-2.192-1.079 2.594 2.594 0 00-2.158 1.064 4.906 4.906 0 00-.821 3.049zm11.777-5.4l.059 1.328a3.85 3.85 0 013.164-1.523q3.35 0 3.379 3.779V4239h-1.807v-6.992a2.432 2.432 0 00-.518-1.69 2.094 2.094 0 00-1.6-.547 2.607 2.607 0 00-1.543.469 3.183 3.183 0 00-1.035 1.23v7.53h-1.807v-10.566zm13.711 10.766a4.617 4.617 0 01-3.5-1.411 5.237 5.237 0 01-1.343-3.779v-.332a6.341 6.341 0 01.6-2.808 4.685 4.685 0 011.68-1.934 4.223 4.223 0 012.339-.7 3.957 3.957 0 013.203 1.364 5.877 5.877 0 011.142 3.882v.752h-7.155a3.756 3.756 0 00.91 2.525 2.87 2.87 0 002.222.962 3.147 3.147 0 001.621-.391 4.073 4.073 0 001.162-1.035l1.1.859a4.437 4.437 0 01-3.981 2.046zm-.224-9.477a2.41 2.41 0 00-1.836.8 3.868 3.868 0 00-.918 2.227h5.293v-.137a3.441 3.441 0 00-.742-2.134 2.269 2.269 0 00-1.797-.756zm14.57 5.556h-5.957l-1.338 3.721h-1.933l5.43-14.219h1.641l5.438 14.219h-1.923zm-5.391-1.533h4.834l-2.423-6.646zm16.719 4.209a3.837 3.837 0 01-3.095 1.245 3.285 3.285 0 01-2.573-.981 4.248 4.248 0 01-.894-2.905v-6.875h1.807v6.821q0 2.4 1.953 2.4a2.7 2.7 0 002.754-1.543v-7.686h1.807V4239h-1.72zm6.953-12.08v2.559h1.973v1.4h-1.973v6.561a1.467 1.467 0 00.264.953 1.11 1.11 0 00.9.318 4.374 4.374 0 00.859-.117V4239a5.268 5.268 0 01-1.384.2 2.25 2.25 0 01-1.83-.737 3.147 3.147 0 01-.615-2.08v-6.553h-1.924v-1.4h1.924v-2.559zm5.889 3.838a3.841 3.841 0 013.125-1.475q3.35 0 3.379 3.779V4239h-1.807v-6.992a2.432 2.432 0 00-.522-1.689 2.094 2.094 0 00-1.6-.547 2.607 2.607 0 00-1.543.469 3.183 3.183 0 00-1.035 1.23V4239h-1.804v-15h1.807z" fill="#fff"/></g></svg>