<svg xmlns="http://www.w3.org/2000/svg" width="60" height="60"><path d="M38.815 36.162c4.428-2.6 7.814-4.582 8.1-4.736.926-.526 1.881-1.919 0-3-.608-.341-3.878-2.26-8.1-4.736l-5.817 6.249z" fill="#ffd400"/><path d="M32.998 29.94l-18.58 20.029a2.338 2.338 0 001.5-.4l22.892-13.4-5.812-6.229z" fill="#f33"/><path d="M32.998 29.94l5.817-6.253s-21.59-12.6-22.892-13.342a2.14 2.14 0 00-1.534-.31z" fill="#48ff48"/><path d="M33 29.939L14.389 10.034c-.752.186-1.389.9-1.389 2.353v35.229c0 1.331.492 2.291 1.418 2.384z" fill="#3bccff"/></svg>