<svg xmlns="http://www.w3.org/2000/svg" width="288.333" height="203.283"><defs><linearGradient id="a" x1="-.173" y1=".5" x2="1.173" y2=".5" gradientUnits="objectBoundingBox"><stop offset="0" stop-color="#39b54a"/><stop offset="1" stop-color="#0f0"/></linearGradient></defs><path d="M7.483 0h273.352a7.7 7.7 0 015.3 2.073 6.915 6.915 0 012.2 5.023v11.432H0V7.1A7.3 7.3 0 017.483 0zM0 18.528h288.333v177.659a7.3 7.3 0 01-7.483 7.1H7.483a7.3 7.3 0 01-7.483-7.1z" fill="#7d8488"/><path d="M1.891 18.528h284.457v177.424a5.84 5.84 0 01-5.988 5.679H7.869a5.839 5.839 0 01-5.978-5.679z" fill="#263238"/><ellipse cx="3.607" cy="3.42" rx="3.607" ry="3.42" transform="translate(9.02 5.834)" fill="#fbb03b"/><ellipse cx="3.607" cy="3.42" rx="3.607" ry="3.42" transform="translate(19.317 5.834)" fill="#6fb353"/><ellipse cx="3.607" cy="3.42" rx="3.607" ry="3.42" transform="translate(30.317 5.834)" fill="#c1272d"/><path d="M15.667 9.824l57.011-2.49a5.043 5.043 0 015.354 5.353L75.541 69.7a6.226 6.226 0 01-5.841 5.841l-57.011 2.49a5.043 5.043 0 01-5.353-5.354l2.49-57.011a6.226 6.226 0 015.841-5.842z" transform="rotate(-45 165 -50.836)" fill="url(#a)"/><path d="M106.27 101.604l38.2-41.691 38.202 41.691-38.201 41.691z" fill="#263238"/><path d="M137.47 104.384v13.266h-3.814V82.566h8.944q5.22 0 8.091 2.74t2.872 7.731a11.047 11.047 0 01-3.189 8.172 11.637 11.637 0 01-8.615 3.174zm0-18.105v14.392h4a8.489 8.489 0 006.026-1.945 7.184 7.184 0 002.077-5.492q0-6.948-7.626-6.948zm20.26 31.32a5.072 5.072 0 01-2.133.381q-3.751 0-3.751-3.537v-7.152h-2.454v-1.65h2.454v-2.95l2.286-.624v3.573h3.6v1.651h-3.6v6.8a2.494 2.494 0 00.488 1.734 2.144 2.144 0 001.618.519 2.71 2.71 0 001.492-.4z" fill="#fff"/></svg>