<svg xmlns="http://www.w3.org/2000/svg" width="80" height="80"><defs><linearGradient id="a" x1=".13" y1=".117" x2=".796" y2=".785" gradientUnits="objectBoundingBox"><stop offset="0" stop-color="#387eb8"/><stop offset="1" stop-color="#366994"/></linearGradient><linearGradient id="b" x1=".191" y1=".203" x2=".907" y2=".888" gradientUnits="objectBoundingBox"><stop offset="0" stop-color="#ffe052"/><stop offset="1" stop-color="#ffc331"/></linearGradient></defs><path d="M69.757 67.469c-12.693 0-11.9 5.533-11.9 5.533l.014 5.732h12.113v1.721H53.06s-8.122-.925-8.122 11.945 7.089 12.418 7.089 12.418h4.231v-5.97s-.228-7.126 6.976-7.126h12.014s6.75.11 6.75-6.557V74.14s1.024-6.671-12.241-6.671zm-6.679 3.855a2.191 2.191 0 11-2.178 2.19 2.183 2.183 0 012.178-2.19z" transform="translate(-29.938 -52.469)" fill="url(#a)"/><path d="M85.733 132.6c12.693 0 11.9-5.533 11.9-5.533l-.014-5.733H85.506v-1.721h16.924s8.123.926 8.123-11.949-7.09-12.418-7.09-12.418h-4.231v5.974s.228 7.127-6.976 7.127H80.242s-6.75-.11-6.75 6.557v11.024s-1.024 6.672 12.241 6.672zm6.679-3.855a2.191 2.191 0 112.179-2.19 2.183 2.183 0 01-2.179 2.193z" transform="translate(-45.553 -67.603)" fill="url(#b)"/></svg>