<svg xmlns="http://www.w3.org/2000/svg" width="40" height="40"><path d="M34.443 22.994a6.648 6.648 0 00-3.624 1.12 12.216 12.216 0 01-.811-2.5 8.927 8.927 0 01-.073-2.1c.088-.9.482-2.173.475-2.27s-.088-.555-.891-.565-1.5.2-1.578.487a14.894 14.894 0 00-.336 1.588 43.245 43.245 0 01-2.448 6.274 8.21 8.21 0 01-.555-1.832 8.927 8.927 0 01-.073-2.1c.088-.9.482-2.173.475-2.27s-.088-.555-.891-.565-1.5.2-1.578.487-.168.945-.336 1.588-2.119 6.449-2.63 7.95c-.263.77-.49 1.383-.65 1.8a.521.521 0 01-.029.078c-.139.36-.219.555-.219.555v.01c-.11.263-.226.507-.285.507a4.312 4.312 0 01.015-1.656c.292-2.017.986-5.154.979-5.261a.79.79 0 00-.454-.893.614.614 0 00-.826.185c-.051 0-.088.166-.088.166s.636-3.527-1.213-3.527c-1.154 0-2.747 1.685-3.536 3.205-.5.36-1.556 1.13-2.689 1.958-.431.321-.877.643-1.293.945-.029-.039-.058-.088-.088-.127-2.236-3.186-6.371-5.436-6.2-9.713.066-1.559.468-5.651 7.942-10.619 6.152-4.043 11.047-2.923 11.894-.438 1.213 3.546-2.623 10.132-8.979 11.087a4.055 4.055 0 01-4.014-1.358c-.336-.487-.387-.516-.511-.419-.2.146-.073.585 0 .838a4.25 4.25 0 002.294 2.406c1.169.507 4.011.789 7.452-.984 3.85-1.987 6.86-7.511 5.976-12.139-.884-4.7-6.729-6.245-12.26-3.624a27.266 27.266 0 00-9.417 7.21C.326 12.278-.159 15.58.038 16.964c.709 4.91 5.788 8.105 7.818 10.473-.1.078-.2.146-.278.2-1.016.672-4.888 3.371-5.852 6.225-1.1 3.234.175 5.553 1.016 5.865 2.608.964 5.29-.77 6.729-3.634a11.658 11.658 0 00.6-8.291.219.219 0 00-.029-.058c.263-.2.533-.419.8-.624.519-.409 1.03-.789 1.469-1.1a16.651 16.651 0 00-.519 3.546 9.153 9.153 0 001.191 5.144 1.111 1.111 0 00.964.419c.862 0 1.249-.955 1.68-2.085.526-1.383 1-2.991 1-2.991s-.592 4.345 1.016 4.345c.584 0 1.176-1.013 1.439-1.53v.01s.015-.029.044-.1l.095-.2v-.019c.234-.546.76-1.783 1.542-3.838 1.008-2.65 1.98-5.962 1.98-5.962a21.832 21.832 0 00.387 2.153 24.15 24.15 0 00.833 2.494c-.234.438-.38.682-.38.682l.007.01c-.19.331-.395.692-.621 1.042a31.406 31.406 0 00-1.878 3.137 1.039 1.039 0 00.175 1.15 1.258 1.258 0 00.979.214 3.607 3.607 0 001.469-.448 4.664 4.664 0 001.264-.887 4.3 4.3 0 001.213-3.322 8.543 8.543 0 00-.46-2.348c.073-.136.139-.273.212-.409a50.213 50.213 0 002.183-5.045 21.832 21.832 0 00.387 2.153 17.209 17.209 0 00.709 2.143 9.49 9.49 0 00-2.133 3.673c-.46 1.773-.1 2.572.577 2.757a1.617 1.617 0 001.067-.292 4.56 4.56 0 001.352-.926 4.4 4.4 0 001.49-3.293 8.008 8.008 0 00-.336-1.948 5.911 5.911 0 013.88-.594 4.438 4.438 0 014.033 4.657 3.138 3.138 0 01-1.1 2.085c-.241.2-.321.273-.3.419.029.214.146.2.351.166a3.469 3.469 0 001.893-3.226 5.585 5.585 0 00-5.553-5.962zM7.615 35.055c-1.155 1.671-2.762 2.309-3.456 1.771-.745-.575-.453-3.049.964-4.822a19.917 19.917 0 012.711-2.7c.168-.136.416-.331.716-.575.051-.039.08-.058.08-.058l.176-.145a8.3 8.3 0 01-1.191 6.529zm8.4-7.618c-.4 1.305-1.242 4.647-1.753 4.462-.438-.156-.709-2.689-.088-5.193a13.347 13.347 0 011.366-3.342c.628-.935 1.322-1.247 1.49-.867.214.497-.765 4.121-1.013 4.94zm6.934 4.423c-.168.117-.329.195-.4.136-.051-.039.073-.195.073-.195s.869-1.247 1.213-1.812c.2-.331.431-.721.679-1.159v.127a3.947 3.947 0 01-1.564 2.903zm5.348-1.627c-.124-.117-.1-.507.314-1.724a6.653 6.653 0 011.191-2.046 3.6 3.6 0 01.117.9 2.89 2.89 0 01-1.621 2.87z" fill="#cd6799"/></svg>