<svg xmlns="http://www.w3.org/2000/svg" width="80" height="80"><path d="M23.854 15h32.292A8.962 8.962 0 0165 24.081v31.838A8.962 8.962 0 0156.146 65H23.854A8.962 8.962 0 0115 55.919V24.081A8.962 8.962 0 0123.854 15z" fill="#470137"/><path d="M41.291 28.141l-6.25 10.579 6.667 11.218a.376.376 0 01.042.256c-.021.085-.1.021-.229.043h-4.772c-.333 0-.562-.021-.708-.235-.437-.9-.9-1.774-1.333-2.671-.437-.876-.917-1.774-1.417-2.692s-1-1.838-1.5-2.778h-.042c-.437.919-.917 1.838-1.4 2.756s-.958 1.838-1.417 2.735c-.479.9-.958 1.816-1.437 2.692-.083.214-.25.235-.479.235h-4.579c-.083 0-.146.043-.146-.064a.3.3 0 01.042-.235l6.479-10.9-6.313-10.96c-.062-.085-.083-.171-.042-.214a.239.239 0 01.209-.086h4.729a1.2 1.2 0 01.292.043.6.6 0 01.208.192c.4.919.854 1.838 1.333 2.756.5.919.979 1.816 1.5 2.714.5.9.958 1.795 1.4 2.714h.042c.438-.94.9-1.859 1.354-2.756s.938-1.795 1.417-2.692.938-1.816 1.4-2.692a.365.365 0 01.125-.214.389.389 0 01.271-.043h4.4a.192.192 0 01.229.15c.021.021-.021.107-.062.15zm9.625 22.543a10.137 10.137 0 01-4.479-.962 7.331 7.331 0 01-3.146-2.906 9.434 9.434 0 01-1.146-4.872 8.951 8.951 0 011.146-4.509 8.757 8.757 0 013.312-3.312 10.44 10.44 0 015.271-1.239 3.629 3.629 0 01.438.021c.188.021.4.021.646.043v-6.751c0-.15.063-.235.208-.235h4.229a.187.187 0 01.208.15v20.384c0 .385.021.812.042 1.282.042.449.063.876.083 1.239a.348.348 0 01-.208.342 15.611 15.611 0 01-3.4 1.026 17.931 17.931 0 01-3.204.299zm2.042-4.274v-9.4a5.21 5.21 0 00-.562-.107c-.229-.021-.458-.043-.687-.043a5.03 5.03 0 00-2.354.556 4.708 4.708 0 00-1.771 1.581 4.829 4.829 0 00-.687 2.714 6.092 6.092 0 00.354 2.2 4.192 4.192 0 00.938 1.517 3.581 3.581 0 001.417.855 5.329 5.329 0 001.729.278c.312 0 .6-.021.875-.043a1.78 1.78 0 00.748-.107z" fill="#ff61f6"/></svg>