<svg xmlns="http://www.w3.org/2000/svg" width="90" height="90"><path d="M15.938 0h58.124A16.132 16.132 0 0190 16.346v57.308A16.132 16.132 0 0174.062 90H15.938A16.132 16.132 0 010 73.654V16.346A16.132 16.132 0 0115.938 0z" fill="#470137"/><path d="M47.324 23.654l-11.25 19.038 12 20.192a.677.677 0 01.075.462c-.037.154-.187.038-.412.077h-8.588c-.6 0-1.012-.038-1.275-.423-.787-1.615-1.613-3.192-2.4-4.808-.788-1.577-1.65-3.192-2.55-4.846s-1.8-3.308-2.7-5h-.075c-.787 1.654-1.65 3.308-2.512 4.962s-1.725 3.308-2.55 4.923c-.863 1.615-1.725 3.269-2.588 4.846-.15.385-.45.423-.862.423h-8.25c-.15 0-.263.077-.263-.115a.545.545 0 01.075-.423l11.663-19.616-11.363-19.731c-.112-.154-.15-.308-.075-.385a.43.43 0 01.375-.153h8.513a2.162 2.162 0 01.525.077 1.073 1.073 0 01.375.346c.712 1.654 1.538 3.308 2.4 4.962.9 1.654 1.762 3.269 2.7 4.885a85.682 85.682 0 012.513 4.885h.075c.788-1.692 1.613-3.346 2.438-4.962s1.688-3.231 2.55-4.846 1.688-3.269 2.512-4.846a.657.657 0 01.225-.385.7.7 0 01.487-.077h7.912a.345.345 0 01.412.269c.037.038-.037.192-.112.269zM64.65 64.231a18.247 18.247 0 01-8.062-1.731 13.2 13.2 0 01-5.663-5.231 16.982 16.982 0 01-2.06-8.768 16.113 16.113 0 012.063-8.115 15.763 15.763 0 015.962-5.962 18.793 18.793 0 019.488-2.231 6.531 6.531 0 01.787.038c.337.038.713.038 1.162.077V20.155c0-.269.113-.423.375-.423h7.613a.337.337 0 01.375.269v36.692c0 .692.038 1.462.075 2.308.075.808.112 1.577.15 2.231a.626.626 0 01-.375.615 28.1 28.1 0 01-6.112 1.846 32.275 32.275 0 01-5.778.538zm3.675-7.69V39.616a9.377 9.377 0 00-1.012-.192c-.413-.038-.825-.077-1.238-.077a9.054 9.054 0 00-4.238 1 8.474 8.474 0 00-3.187 2.846 8.693 8.693 0 00-1.238 4.885 10.967 10.967 0 00.637 3.962 7.545 7.545 0 001.688 2.731 6.446 6.446 0 002.55 1.538 9.592 9.592 0 003.112.5c.562 0 1.087-.038 1.575-.077a3.2 3.2 0 001.351-.191z" fill="#ff61f6"/></svg>